<?xml version="1.0" encoding="utf-8"?>
<svg aria-hidden="true" role="img" width="1em" height="1em" preserveAspectRatio="xMidYMid meet" viewBox="0 0 100 100" xmlns="http://www.w3.org/2000/svg" xmlns:bx="https://boxy-svg.com">
  <defs>
    <style bx:fonts="Roboto">@import url(https://fonts.googleapis.com/css2?family=Roboto%3Aital%2Cwght%400%2C100%3B0%2C300%3B0%2C400%3B0%2C500%3B0%2C700%3B0%2C900%3B1%2C100%3B1%2C300%3B1%2C400%3B1%2C500%3B1%2C700%3B1%2C900&amp;display=swap);</style>
  </defs>
  <path fill="#3f2b96" d="M50 10.417c-15.581 0-28.201 12.627-28.201 28.201a28.074 28.074 0 0 0 5.602 16.873L45.49 86.823c.105.202.21.403.339.588l.04.069l.011-.006a5.063 5.063 0 0 0 4.135 2.111c1.556 0 2.912-.708 3.845-1.799l.047.027l.179-.31c.264-.356.498-.736.667-1.155L72.475 55.65a28.074 28.074 0 0 0 5.726-17.032c0-15.574-12.62-28.201-28.201-28.201zm-.279 42.498c-7.677 0-13.895-6.221-13.895-13.895c0-7.673 6.218-13.895 13.895-13.895s13.895 6.222 13.895 13.895c0 7.673-6.218 13.895-13.895 13.895z"/>
  <text style="fill: rgb(63, 43, 150); font-family: Roboto; font-size: 27px; font-weight: 700; text-anchor: middle; white-space: pre;" transform="matrix(1.189802, 0, 0, 1.088662, 2.82406, -1.238458)" x="40.23" y="46.092">B</text>
</svg>