<?xml version="1.0" encoding="utf-8"?>
<svg aria-hidden="true" role="img" width="1em" height="1em" preserveAspectRatio="xMidYMid meet" viewBox="0 0 100 100" xmlns="http://www.w3.org/2000/svg" xmlns:bx="https://boxy-svg.com">
  <defs>
    <style bx:fonts="Roboto">@import url(https://fonts.googleapis.com/css2?family=Roboto%3Aital%2Cwght%400%2C100%3B0%2C300%3B0%2C400%3B0%2C500%3B0%2C700%3B0%2C900%3B1%2C100%3B1%2C300%3B1%2C400%3B1%2C500%3B1%2C700%3B1%2C900&amp;display=swap);</style>
  </defs>
  <path d="M 47.989 36.624 C 35.933 36.624 26.168 46.208 26.168 58.029 C 26.16 62.645 27.681 67.14 30.502 70.835 L 44.5 94.616 C 44.581 94.769 44.662 94.922 44.762 95.062 L 44.793 95.114 L 44.801 95.11 C 45.54 96.12 46.733 96.717 48.001 96.712 C 49.205 96.712 50.254 96.175 50.976 95.347 L 51.013 95.367 L 51.151 95.132 C 51.355 94.862 51.536 94.573 51.667 94.255 L 65.38 70.956 C 68.261 67.239 69.817 62.697 69.811 58.029 C 69.811 46.208 60.046 36.624 47.989 36.624 Z M 47.773 68.88 C 41.833 68.88 37.022 64.158 37.022 58.334 C 37.022 52.51 41.833 47.788 47.773 47.788 C 53.714 47.788 58.525 52.51 58.525 58.334 C 58.525 64.157 53.714 68.88 47.773 68.88 Z" style="fill: #3F2B96;"/>
  <text style="fill: #3F2B96; font-family: Arial, Helvetica, sans-serif; font-size: 11px; font-weight: 700; text-anchor: middle; white-space: pre;" transform="matrix(1.189802, 0, 0, 1.088662, 0.410268, -15.491332)" x="40.23" y="46.092">START/END</text>
  <text style="white-space: pre; fill: #3F2B96; font-family: Arial, sans-serif; font-size: 3.2px;" x="12.414" y="44.036"> </text>
</svg>